<svg xmlns="http://www.w3.org/2000/svg" viewBox="0 0 1642.14 1080"><path d="M1607.03,485.85l-104.29-362.23c-12.06-41.85-42.56-65.97-83.7-65.97-34.76,0-61.72,17.02-79.45,49.65l-115.48,217.61c-15.99,30.14-59.22,30.02-75.04-.22l-113.77-217.39c-17.73-32.63-44.69-49.65-78.74-49.65-41.14,0-71.64,24.12-84.41,65.97l-107.28,361.91c-.46,1.73-1.22,3.87-1.67,5.83l-21.43,74.76c-.66,1.58-1.07,3.86-1.54,5.53l-42.04,148.81c-10.37,37.02-60.7,42.26-78.46,8.16l-74.59-143.21c-21.28-39.72-43.98-53.2-86.53-53.2s-66.68,13.47-88.67,53.2l-75.58,143.06c-17.94,33.96-68.18,28.49-78.39-8.54l-41.02-148.77c-5.07-18.4-21.81-31.14-40.89-31.14h-58.19c-28.21,0-48.56,27.04-40.76,54.15l104.29,362.23c12.06,41.85,42.56,65.97,83.7,65.97,34.76,0,61.72-17.02,79.45-49.65l115.48-217.61c16-30.14,59.22-30.02,75.04.22l113.77,217.39c17.74,32.63,44.69,49.65,78.74,49.65,41.14,0,71.64-24.12,84.41-65.97l107.28-361.91c.56-1.88,1.16-3.1,1.91-5.95l20.4-72.79c.77-2.19,1.17-4.53,1.82-6.86l42.55-149.33c10.37-37.02,60.7-42.26,78.46-8.16l74.59,143.21c21.28,39.72,43.98,53.2,86.54,53.2s66.68-13.48,88.67-53.2l75.58-143.06c17.94-33.96,68.18-28.49,78.39,8.54l41.02,148.77c5.07,18.4,21.81,31.14,40.89,31.14h58.18c28.22,0,48.56-27.04,40.76-54.15Z" fill="none" stroke="#cadb2e" stroke-width="9" /></svg>
